ISO-10303-21;
HEADER;
/* Generated by software containing ST-Developer
 * from STEP Tools, Inc. (www.steptools.com) 
 */

FILE_DESCRIPTION(
/* description */ (''),
/* implementation_level */ '2;1');

FILE_NAME(
/* name */ 'Top Plate.step',
/* time_stamp */ '2025-08-19T20:56:42+01:00',
/* author */ (''),
/* organization */ (''),
/* preprocessor_version */ 'ST-DEVELOPER v20.1',
/* originating_system */ 'Autodesk Translation Framework v14.10.0.0',
/* authorisation */ '');

FILE_SCHEMA (('AUTOMOTIVE_DESIGN { 1 0 10303 214 3 1 1 }'));
ENDSEC;

DATA;
#10=MECHANICAL_DESIGN_GEOMETRIC_PRESENTATION_REPRESENTATION('',(#13),#607);
#11=SHAPE_REPRESENTATION_RELATIONSHIP('SRR','None',#614,#12);
#12=ADVANCED_BREP_SHAPE_REPRESENTATION('',(#14),#606);
#13=STYLED_ITEM('',(#623),#14);
#14=MANIFOLD_SOLID_BREP('Body1',#371);
#15=FACE_BOUND('',#74,.T.);
#16=FACE_BOUND('',#75,.T.);
#17=FACE_BOUND('',#76,.T.);
#18=FACE_BOUND('',#77,.T.);
#19=FACE_BOUND('',#78,.T.);
#20=FACE_BOUND('',#80,.T.);
#21=FACE_BOUND('',#81,.T.);
#22=FACE_BOUND('',#82,.T.);
#23=FACE_BOUND('',#83,.T.);
#24=FACE_BOUND('',#84,.T.);
#25=PLANE('',#397);
#26=PLANE('',#398);
#27=PLANE('',#399);
#28=PLANE('',#400);
#29=PLANE('',#401);
#30=PLANE('',#402);
#31=PLANE('',#403);
#32=PLANE('',#404);
#33=PLANE('',#405);
#34=PLANE('',#406);
#35=PLANE('',#407);
#36=PLANE('',#408);
#37=PLANE('',#409);
#38=PLANE('',#410);
#39=FACE_OUTER_BOUND('',#57,.T.);
#40=FACE_OUTER_BOUND('',#58,.T.);
#41=FACE_OUTER_BOUND('',#59,.T.);
#42=FACE_OUTER_BOUND('',#60,.T.);
#43=FACE_OUTER_BOUND('',#61,.T.);
#44=FACE_OUTER_BOUND('',#62,.T.);
#45=FACE_OUTER_BOUND('',#63,.T.);
#46=FACE_OUTER_BOUND('',#64,.T.);
#47=FACE_OUTER_BOUND('',#65,.T.);
#48=FACE_OUTER_BOUND('',#66,.T.);
#49=FACE_OUTER_BOUND('',#67,.T.);
#50=FACE_OUTER_BOUND('',#68,.T.);
#51=FACE_OUTER_BOUND('',#69,.T.);
#52=FACE_OUTER_BOUND('',#70,.T.);
#53=FACE_OUTER_BOUND('',#71,.T.);
#54=FACE_OUTER_BOUND('',#72,.T.);
#55=FACE_OUTER_BOUND('',#73,.T.);
#56=FACE_OUTER_BOUND('',#79,.T.);
#57=EDGE_LOOP('',(#253,#254,#255,#256));
#58=EDGE_LOOP('',(#257,#258,#259,#260));
#59=EDGE_LOOP('',(#261,#262,#263,#264));
#60=EDGE_LOOP('',(#265,#266,#267,#268));
#61=EDGE_LOOP('',(#269,#270,#271,#272));
#62=EDGE_LOOP('',(#273,#274,#275,#276));
#63=EDGE_LOOP('',(#277,#278,#279,#280));
#64=EDGE_LOOP('',(#281,#282,#283,#284));
#65=EDGE_LOOP('',(#285,#286,#287,#288));
#66=EDGE_LOOP('',(#289,#290,#291,#292));
#67=EDGE_LOOP('',(#293,#294,#295,#296));
#68=EDGE_LOOP('',(#297,#298,#299,#300));
#69=EDGE_LOOP('',(#301,#302,#303,#304));
#70=EDGE_LOOP('',(#305,#306,#307,#308));
#71=EDGE_LOOP('',(#309,#310,#311,#312));
#72=EDGE_LOOP('',(#313,#314,#315,#316));
#73=EDGE_LOOP('',(#317,#318,#319,#320));
#74=EDGE_LOOP('',(#321,#322,#323,#324,#325,#326,#327,#328));
#75=EDGE_LOOP('',(#329));
#76=EDGE_LOOP('',(#330));
#77=EDGE_LOOP('',(#331));
#78=EDGE_LOOP('',(#332));
#79=EDGE_LOOP('',(#333,#334,#335,#336));
#80=EDGE_LOOP('',(#337,#338,#339,#340,#341,#342,#343,#344));
#81=EDGE_LOOP('',(#345));
#82=EDGE_LOOP('',(#346));
#83=EDGE_LOOP('',(#347));
#84=EDGE_LOOP('',(#348));
#85=LINE('',#510,#125);
#86=LINE('',#516,#126);
#87=LINE('',#522,#127);
#88=LINE('',#528,#128);
#89=LINE('',#533,#129);
#90=LINE('',#535,#130);
#91=LINE('',#537,#131);
#92=LINE('',#538,#132);
#93=LINE('',#541,#133);
#94=LINE('',#543,#134);
#95=LINE('',#544,#135);
#96=LINE('',#547,#136);
#97=LINE('',#549,#137);
#98=LINE('',#550,#138);
#99=LINE('',#553,#139);
#100=LINE('',#555,#140);
#101=LINE('',#556,#141);
#102=LINE('',#559,#142);
#103=LINE('',#561,#143);
#104=LINE('',#562,#144);
#105=LINE('',#565,#145);
#106=LINE('',#567,#146);
#107=LINE('',#568,#147);
#108=LINE('',#571,#148);
#109=LINE('',#573,#149);
#110=LINE('',#574,#150);
#111=LINE('',#576,#151);
#112=LINE('',#577,#152);
#113=LINE('',#581,#153);
#114=LINE('',#583,#154);
#115=LINE('',#585,#155);
#116=LINE('',#586,#156);
#117=LINE('',#589,#157);
#118=LINE('',#591,#158);
#119=LINE('',#592,#159);
#120=LINE('',#595,#160);
#121=LINE('',#597,#161);
#122=LINE('',#598,#162);
#123=LINE('',#600,#163);
#124=LINE('',#601,#164);
#125=VECTOR('',#417,1.75);
#126=VECTOR('',#424,1.75);
#127=VECTOR('',#431,1.75);
#128=VECTOR('',#438,1.75);
#129=VECTOR('',#443,10.);
#130=VECTOR('',#444,10.);
#131=VECTOR('',#445,10.);
#132=VECTOR('',#446,10.);
#133=VECTOR('',#449,10.);
#134=VECTOR('',#450,10.);
#135=VECTOR('',#451,10.);
#136=VECTOR('',#454,10.);
#137=VECTOR('',#455,10.);
#138=VECTOR('',#456,10.);
#139=VECTOR('',#459,10.);
#140=VECTOR('',#460,10.);
#141=VECTOR('',#461,10.);
#142=VECTOR('',#464,10.);
#143=VECTOR('',#465,10.);
#144=VECTOR('',#466,10.);
#145=VECTOR('',#469,10.);
#146=VECTOR('',#470,10.);
#147=VECTOR('',#471,10.);
#148=VECTOR('',#474,10.);
#149=VECTOR('',#475,10.);
#150=VECTOR('',#476,10.);
#151=VECTOR('',#479,10.);
#152=VECTOR('',#480,10.);
#153=VECTOR('',#483,10.);
#154=VECTOR('',#484,10.);
#155=VECTOR('',#485,10.);
#156=VECTOR('',#486,10.);
#157=VECTOR('',#489,10.);
#158=VECTOR('',#490,10.);
#159=VECTOR('',#491,10.);
#160=VECTOR('',#494,10.);
#161=VECTOR('',#495,10.);
#162=VECTOR('',#496,10.);
#163=VECTOR('',#499,10.);
#164=VECTOR('',#500,10.);
#165=CIRCLE('',#386,1.75);
#166=CIRCLE('',#387,1.75);
#167=CIRCLE('',#389,1.75);
#168=CIRCLE('',#390,1.75);
#169=CIRCLE('',#392,1.75);
#170=CIRCLE('',#393,1.75);
#171=CIRCLE('',#395,1.75);
#172=CIRCLE('',#396,1.75);
#173=VERTEX_POINT('',#507);
#174=VERTEX_POINT('',#509);
#175=VERTEX_POINT('',#513);
#176=VERTEX_POINT('',#515);
#177=VERTEX_POINT('',#519);
#178=VERTEX_POINT('',#521);
#179=VERTEX_POINT('',#525);
#180=VERTEX_POINT('',#527);
#181=VERTEX_POINT('',#531);
#182=VERTEX_POINT('',#532);
#183=VERTEX_POINT('',#534);
#184=VERTEX_POINT('',#536);
#185=VERTEX_POINT('',#540);
#186=VERTEX_POINT('',#542);
#187=VERTEX_POINT('',#546);
#188=VERTEX_POINT('',#548);
#189=VERTEX_POINT('',#552);
#190=VERTEX_POINT('',#554);
#191=VERTEX_POINT('',#558);
#192=VERTEX_POINT('',#560);
#193=VERTEX_POINT('',#564);
#194=VERTEX_POINT('',#566);
#195=VERTEX_POINT('',#570);
#196=VERTEX_POINT('',#572);
#197=VERTEX_POINT('',#579);
#198=VERTEX_POINT('',#580);
#199=VERTEX_POINT('',#582);
#200=VERTEX_POINT('',#584);
#201=VERTEX_POINT('',#588);
#202=VERTEX_POINT('',#590);
#203=VERTEX_POINT('',#594);
#204=VERTEX_POINT('',#596);
#205=EDGE_CURVE('',#173,#173,#165,.T.);
#206=EDGE_CURVE('',#173,#174,#85,.T.);
#207=EDGE_CURVE('',#174,#174,#166,.T.);
#208=EDGE_CURVE('',#175,#175,#167,.T.);
#209=EDGE_CURVE('',#175,#176,#86,.T.);
#210=EDGE_CURVE('',#176,#176,#168,.T.);
#211=EDGE_CURVE('',#177,#177,#169,.T.);
#212=EDGE_CURVE('',#177,#178,#87,.T.);
#213=EDGE_CURVE('',#178,#178,#170,.T.);
#214=EDGE_CURVE('',#179,#179,#171,.T.);
#215=EDGE_CURVE('',#179,#180,#88,.T.);
#216=EDGE_CURVE('',#180,#180,#172,.T.);
#217=EDGE_CURVE('',#181,#182,#89,.T.);
#218=EDGE_CURVE('',#182,#183,#90,.T.);
#219=EDGE_CURVE('',#184,#183,#91,.T.);
#220=EDGE_CURVE('',#181,#184,#92,.T.);
#221=EDGE_CURVE('',#185,#181,#93,.T.);
#222=EDGE_CURVE('',#186,#184,#94,.T.);
#223=EDGE_CURVE('',#185,#186,#95,.T.);
#224=EDGE_CURVE('',#187,#185,#96,.T.);
#225=EDGE_CURVE('',#188,#186,#97,.T.);
#226=EDGE_CURVE('',#187,#188,#98,.T.);
#227=EDGE_CURVE('',#189,#187,#99,.T.);
#228=EDGE_CURVE('',#190,#188,#100,.T.);
#229=EDGE_CURVE('',#189,#190,#101,.T.);
#230=EDGE_CURVE('',#191,#189,#102,.T.);
#231=EDGE_CURVE('',#192,#190,#103,.T.);
#232=EDGE_CURVE('',#191,#192,#104,.T.);
#233=EDGE_CURVE('',#193,#191,#105,.T.);
#234=EDGE_CURVE('',#194,#192,#106,.T.);
#235=EDGE_CURVE('',#193,#194,#107,.T.);
#236=EDGE_CURVE('',#195,#193,#108,.T.);
#237=EDGE_CURVE('',#196,#194,#109,.T.);
#238=EDGE_CURVE('',#195,#196,#110,.T.);
#239=EDGE_CURVE('',#182,#195,#111,.T.);
#240=EDGE_CURVE('',#183,#196,#112,.T.);
#241=EDGE_CURVE('',#197,#198,#113,.T.);
#242=EDGE_CURVE('',#197,#199,#114,.T.);
#243=EDGE_CURVE('',#200,#199,#115,.T.);
#244=EDGE_CURVE('',#198,#200,#116,.T.);
#245=EDGE_CURVE('',#198,#201,#117,.T.);
#246=EDGE_CURVE('',#202,#200,#118,.T.);
#247=EDGE_CURVE('',#201,#202,#119,.T.);
#248=EDGE_CURVE('',#201,#203,#120,.T.);
#249=EDGE_CURVE('',#204,#202,#121,.T.);
#250=EDGE_CURVE('',#203,#204,#122,.T.);
#251=EDGE_CURVE('',#203,#197,#123,.T.);
#252=EDGE_CURVE('',#199,#204,#124,.T.);
#253=ORIENTED_EDGE('',*,*,#205,.F.);
#254=ORIENTED_EDGE('',*,*,#206,.T.);
#255=ORIENTED_EDGE('',*,*,#207,.T.);
#256=ORIENTED_EDGE('',*,*,#206,.F.);
#257=ORIENTED_EDGE('',*,*,#208,.F.);
#258=ORIENTED_EDGE('',*,*,#209,.T.);
#259=ORIENTED_EDGE('',*,*,#210,.T.);
#260=ORIENTED_EDGE('',*,*,#209,.F.);
#261=ORIENTED_EDGE('',*,*,#211,.F.);
#262=ORIENTED_EDGE('',*,*,#212,.T.);
#263=ORIENTED_EDGE('',*,*,#213,.T.);
#264=ORIENTED_EDGE('',*,*,#212,.F.);
#265=ORIENTED_EDGE('',*,*,#214,.F.);
#266=ORIENTED_EDGE('',*,*,#215,.T.);
#267=ORIENTED_EDGE('',*,*,#216,.T.);
#268=ORIENTED_EDGE('',*,*,#215,.F.);
#269=ORIENTED_EDGE('',*,*,#217,.T.);
#270=ORIENTED_EDGE('',*,*,#218,.T.);
#271=ORIENTED_EDGE('',*,*,#219,.F.);
#272=ORIENTED_EDGE('',*,*,#220,.F.);
#273=ORIENTED_EDGE('',*,*,#221,.T.);
#274=ORIENTED_EDGE('',*,*,#220,.T.);
#275=ORIENTED_EDGE('',*,*,#222,.F.);
#276=ORIENTED_EDGE('',*,*,#223,.F.);
#277=ORIENTED_EDGE('',*,*,#224,.T.);
#278=ORIENTED_EDGE('',*,*,#223,.T.);
#279=ORIENTED_EDGE('',*,*,#225,.F.);
#280=ORIENTED_EDGE('',*,*,#226,.F.);
#281=ORIENTED_EDGE('',*,*,#227,.T.);
#282=ORIENTED_EDGE('',*,*,#226,.T.);
#283=ORIENTED_EDGE('',*,*,#228,.F.);
#284=ORIENTED_EDGE('',*,*,#229,.F.);
#285=ORIENTED_EDGE('',*,*,#230,.T.);
#286=ORIENTED_EDGE('',*,*,#229,.T.);
#287=ORIENTED_EDGE('',*,*,#231,.F.);
#288=ORIENTED_EDGE('',*,*,#232,.F.);
#289=ORIENTED_EDGE('',*,*,#233,.T.);
#290=ORIENTED_EDGE('',*,*,#232,.T.);
#291=ORIENTED_EDGE('',*,*,#234,.F.);
#292=ORIENTED_EDGE('',*,*,#235,.F.);
#293=ORIENTED_EDGE('',*,*,#236,.T.);
#294=ORIENTED_EDGE('',*,*,#235,.T.);
#295=ORIENTED_EDGE('',*,*,#237,.F.);
#296=ORIENTED_EDGE('',*,*,#238,.F.);
#297=ORIENTED_EDGE('',*,*,#239,.T.);
#298=ORIENTED_EDGE('',*,*,#238,.T.);
#299=ORIENTED_EDGE('',*,*,#240,.F.);
#300=ORIENTED_EDGE('',*,*,#218,.F.);
#301=ORIENTED_EDGE('',*,*,#241,.F.);
#302=ORIENTED_EDGE('',*,*,#242,.T.);
#303=ORIENTED_EDGE('',*,*,#243,.F.);
#304=ORIENTED_EDGE('',*,*,#244,.F.);
#305=ORIENTED_EDGE('',*,*,#245,.F.);
#306=ORIENTED_EDGE('',*,*,#244,.T.);
#307=ORIENTED_EDGE('',*,*,#246,.F.);
#308=ORIENTED_EDGE('',*,*,#247,.F.);
#309=ORIENTED_EDGE('',*,*,#248,.F.);
#310=ORIENTED_EDGE('',*,*,#247,.T.);
#311=ORIENTED_EDGE('',*,*,#249,.F.);
#312=ORIENTED_EDGE('',*,*,#250,.F.);
#313=ORIENTED_EDGE('',*,*,#251,.F.);
#314=ORIENTED_EDGE('',*,*,#250,.T.);
#315=ORIENTED_EDGE('',*,*,#252,.F.);
#316=ORIENTED_EDGE('',*,*,#242,.F.);
#317=ORIENTED_EDGE('',*,*,#252,.T.);
#318=ORIENTED_EDGE('',*,*,#249,.T.);
#319=ORIENTED_EDGE('',*,*,#246,.T.);
#320=ORIENTED_EDGE('',*,*,#243,.T.);
#321=ORIENTED_EDGE('',*,*,#240,.T.);
#322=ORIENTED_EDGE('',*,*,#237,.T.);
#323=ORIENTED_EDGE('',*,*,#234,.T.);
#324=ORIENTED_EDGE('',*,*,#231,.T.);
#325=ORIENTED_EDGE('',*,*,#228,.T.);
#326=ORIENTED_EDGE('',*,*,#225,.T.);
#327=ORIENTED_EDGE('',*,*,#222,.T.);
#328=ORIENTED_EDGE('',*,*,#219,.T.);
#329=ORIENTED_EDGE('',*,*,#214,.T.);
#330=ORIENTED_EDGE('',*,*,#211,.T.);
#331=ORIENTED_EDGE('',*,*,#208,.T.);
#332=ORIENTED_EDGE('',*,*,#205,.T.);
#333=ORIENTED_EDGE('',*,*,#251,.T.);
#334=ORIENTED_EDGE('',*,*,#241,.T.);
#335=ORIENTED_EDGE('',*,*,#245,.T.);
#336=ORIENTED_EDGE('',*,*,#248,.T.);
#337=ORIENTED_EDGE('',*,*,#239,.F.);
#338=ORIENTED_EDGE('',*,*,#217,.F.);
#339=ORIENTED_EDGE('',*,*,#221,.F.);
#340=ORIENTED_EDGE('',*,*,#224,.F.);
#341=ORIENTED_EDGE('',*,*,#227,.F.);
#342=ORIENTED_EDGE('',*,*,#230,.F.);
#343=ORIENTED_EDGE('',*,*,#233,.F.);
#344=ORIENTED_EDGE('',*,*,#236,.F.);
#345=ORIENTED_EDGE('',*,*,#216,.F.);
#346=ORIENTED_EDGE('',*,*,#213,.F.);
#347=ORIENTED_EDGE('',*,*,#210,.F.);
#348=ORIENTED_EDGE('',*,*,#207,.F.);
#349=CYLINDRICAL_SURFACE('',#385,1.75);
#350=CYLINDRICAL_SURFACE('',#388,1.75);
#351=CYLINDRICAL_SURFACE('',#391,1.75);
#352=CYLINDRICAL_SURFACE('',#394,1.75);
#353=ADVANCED_FACE('',(#39),#349,.F.);
#354=ADVANCED_FACE('',(#40),#350,.F.);
#355=ADVANCED_FACE('',(#41),#351,.F.);
#356=ADVANCED_FACE('',(#42),#352,.F.);
#357=ADVANCED_FACE('',(#43),#25,.T.);
#358=ADVANCED_FACE('',(#44),#26,.T.);
#359=ADVANCED_FACE('',(#45),#27,.T.);
#360=ADVANCED_FACE('',(#46),#28,.T.);
#361=ADVANCED_FACE('',(#47),#29,.T.);
#362=ADVANCED_FACE('',(#48),#30,.T.);
#363=ADVANCED_FACE('',(#49),#31,.T.);
#364=ADVANCED_FACE('',(#50),#32,.T.);
#365=ADVANCED_FACE('',(#51),#33,.T.);
#366=ADVANCED_FACE('',(#52),#34,.T.);
#367=ADVANCED_FACE('',(#53),#35,.T.);
#368=ADVANCED_FACE('',(#54),#36,.T.);
#369=ADVANCED_FACE('',(#55,#15,#16,#17,#18,#19),#37,.T.);
#370=ADVANCED_FACE('',(#56,#20,#21,#22,#23,#24),#38,.F.);
#371=CLOSED_SHELL('',(#353,#354,#355,#356,#357,#358,#359,#360,#361,#362,
#363,#364,#365,#366,#367,#368,#369,#370));
#372=DERIVED_UNIT_ELEMENT(#374,1.);
#373=DERIVED_UNIT_ELEMENT(#609,-3.);
#374=(
MASS_UNIT()
NAMED_UNIT(*)
SI_UNIT(.KILO.,.GRAM.)
);
#375=DERIVED_UNIT((#372,#373));
#376=MEASURE_REPRESENTATION_ITEM('density measure',
POSITIVE_RATIO_MEASURE(7850.),#375);
#377=PROPERTY_DEFINITION_REPRESENTATION(#382,#379);
#378=PROPERTY_DEFINITION_REPRESENTATION(#383,#380);
#379=REPRESENTATION('material name',(#381),#606);
#380=REPRESENTATION('density',(#376),#606);
#381=DESCRIPTIVE_REPRESENTATION_ITEM('Steel','Steel');
#382=PROPERTY_DEFINITION('material property','material name',#616);
#383=PROPERTY_DEFINITION('material property','density of part',#616);
#384=AXIS2_PLACEMENT_3D('',#505,#411,#412);
#385=AXIS2_PLACEMENT_3D('',#506,#413,#414);
#386=AXIS2_PLACEMENT_3D('',#508,#415,#416);
#387=AXIS2_PLACEMENT_3D('',#511,#418,#419);
#388=AXIS2_PLACEMENT_3D('',#512,#420,#421);
#389=AXIS2_PLACEMENT_3D('',#514,#422,#423);
#390=AXIS2_PLACEMENT_3D('',#517,#425,#426);
#391=AXIS2_PLACEMENT_3D('',#518,#427,#428);
#392=AXIS2_PLACEMENT_3D('',#520,#429,#430);
#393=AXIS2_PLACEMENT_3D('',#523,#432,#433);
#394=AXIS2_PLACEMENT_3D('',#524,#434,#435);
#395=AXIS2_PLACEMENT_3D('',#526,#436,#437);
#396=AXIS2_PLACEMENT_3D('',#529,#439,#440);
#397=AXIS2_PLACEMENT_3D('',#530,#441,#442);
#398=AXIS2_PLACEMENT_3D('',#539,#447,#448);
#399=AXIS2_PLACEMENT_3D('',#545,#452,#453);
#400=AXIS2_PLACEMENT_3D('',#551,#457,#458);
#401=AXIS2_PLACEMENT_3D('',#557,#462,#463);
#402=AXIS2_PLACEMENT_3D('',#563,#467,#468);
#403=AXIS2_PLACEMENT_3D('',#569,#472,#473);
#404=AXIS2_PLACEMENT_3D('',#575,#477,#478);
#405=AXIS2_PLACEMENT_3D('',#578,#481,#482);
#406=AXIS2_PLACEMENT_3D('',#587,#487,#488);
#407=AXIS2_PLACEMENT_3D('',#593,#492,#493);
#408=AXIS2_PLACEMENT_3D('',#599,#497,#498);
#409=AXIS2_PLACEMENT_3D('',#602,#501,#502);
#410=AXIS2_PLACEMENT_3D('',#603,#503,#504);
#411=DIRECTION('axis',(0.,0.,1.));
#412=DIRECTION('refdir',(1.,0.,0.));
#413=DIRECTION('center_axis',(0.,1.,0.));
#414=DIRECTION('ref_axis',(1.,0.,0.));
#415=DIRECTION('center_axis',(0.,-1.,0.));
#416=DIRECTION('ref_axis',(1.,0.,0.));
#417=DIRECTION('',(0.,-1.,0.));
#418=DIRECTION('center_axis',(0.,-1.,0.));
#419=DIRECTION('ref_axis',(1.,0.,0.));
#420=DIRECTION('center_axis',(0.,1.,0.));
#421=DIRECTION('ref_axis',(1.,0.,0.));
#422=DIRECTION('center_axis',(0.,-1.,0.));
#423=DIRECTION('ref_axis',(1.,0.,0.));
#424=DIRECTION('',(0.,-1.,0.));
#425=DIRECTION('center_axis',(0.,-1.,0.));
#426=DIRECTION('ref_axis',(1.,0.,0.));
#427=DIRECTION('center_axis',(0.,1.,0.));
#428=DIRECTION('ref_axis',(1.,0.,0.));
#429=DIRECTION('center_axis',(0.,-1.,0.));
#430=DIRECTION('ref_axis',(1.,0.,0.));
#431=DIRECTION('',(0.,-1.,0.));
#432=DIRECTION('center_axis',(0.,-1.,0.));
#433=DIRECTION('ref_axis',(1.,0.,0.));
#434=DIRECTION('center_axis',(0.,1.,0.));
#435=DIRECTION('ref_axis',(1.,0.,0.));
#436=DIRECTION('center_axis',(0.,-1.,0.));
#437=DIRECTION('ref_axis',(1.,0.,0.));
#438=DIRECTION('',(0.,-1.,0.));
#439=DIRECTION('center_axis',(0.,-1.,0.));
#440=DIRECTION('ref_axis',(1.,0.,0.));
#441=DIRECTION('center_axis',(0.,0.,-1.));
#442=DIRECTION('ref_axis',(-1.,0.,0.));
#443=DIRECTION('',(-1.,0.,0.));
#444=DIRECTION('',(0.,1.,0.));
#445=DIRECTION('',(-1.,0.,0.));
#446=DIRECTION('',(0.,1.,0.));
#447=DIRECTION('center_axis',(-1.,0.,0.));
#448=DIRECTION('ref_axis',(0.,0.,1.));
#449=DIRECTION('',(0.,0.,1.));
#450=DIRECTION('',(0.,0.,1.));
#451=DIRECTION('',(0.,1.,0.));
#452=DIRECTION('center_axis',(0.,0.,1.));
#453=DIRECTION('ref_axis',(1.,0.,0.));
#454=DIRECTION('',(1.,0.,0.));
#455=DIRECTION('',(1.,0.,0.));
#456=DIRECTION('',(0.,1.,0.));
#457=DIRECTION('center_axis',(-1.,0.,0.));
#458=DIRECTION('ref_axis',(0.,0.,1.));
#459=DIRECTION('',(0.,0.,1.));
#460=DIRECTION('',(0.,0.,1.));
#461=DIRECTION('',(0.,1.,0.));
#462=DIRECTION('center_axis',(0.,0.,1.));
#463=DIRECTION('ref_axis',(1.,0.,0.));
#464=DIRECTION('',(1.,0.,0.));
#465=DIRECTION('',(1.,0.,0.));
#466=DIRECTION('',(0.,1.,0.));
#467=DIRECTION('center_axis',(1.,0.,0.));
#468=DIRECTION('ref_axis',(0.,0.,-1.));
#469=DIRECTION('',(0.,0.,-1.));
#470=DIRECTION('',(0.,0.,-1.));
#471=DIRECTION('',(0.,1.,0.));
#472=DIRECTION('center_axis',(0.,0.,-1.));
#473=DIRECTION('ref_axis',(-1.,0.,0.));
#474=DIRECTION('',(-1.,0.,0.));
#475=DIRECTION('',(-1.,0.,0.));
#476=DIRECTION('',(0.,1.,0.));
#477=DIRECTION('center_axis',(-1.,0.,0.));
#478=DIRECTION('ref_axis',(0.,0.,1.));
#479=DIRECTION('',(0.,0.,1.));
#480=DIRECTION('',(0.,0.,1.));
#481=DIRECTION('center_axis',(1.,0.,0.));
#482=DIRECTION('ref_axis',(0.,0.,-1.));
#483=DIRECTION('',(0.,0.,1.));
#484=DIRECTION('',(0.,1.,0.));
#485=DIRECTION('',(0.,0.,-1.));
#486=DIRECTION('',(0.,1.,0.));
#487=DIRECTION('center_axis',(-4.35381578284375E-17,0.,1.));
#488=DIRECTION('ref_axis',(1.,0.,4.35381578284375E-17));
#489=DIRECTION('',(-1.,0.,-4.35381578284375E-17));
#490=DIRECTION('',(1.,0.,4.35381578284375E-17));
#491=DIRECTION('',(0.,1.,0.));
#492=DIRECTION('center_axis',(-1.,0.,2.53765262771464E-16));
#493=DIRECTION('ref_axis',(2.53765262771464E-16,0.,1.));
#494=DIRECTION('',(-2.53765262771464E-16,0.,-1.));
#495=DIRECTION('',(2.53765262771464E-16,0.,1.));
#496=DIRECTION('',(0.,1.,0.));
#497=DIRECTION('center_axis',(0.,0.,-1.));
#498=DIRECTION('ref_axis',(-1.,0.,0.));
#499=DIRECTION('',(1.,0.,0.));
#500=DIRECTION('',(-1.,0.,0.));
#501=DIRECTION('center_axis',(0.,1.,0.));
#502=DIRECTION('ref_axis',(1.,0.,0.));
#503=DIRECTION('center_axis',(0.,1.,0.));
#504=DIRECTION('ref_axis',(1.,0.,0.));
#505=CARTESIAN_POINT('',(0.,0.,0.));
#506=CARTESIAN_POINT('Origin',(-45.125,0.,28.75));
#507=CARTESIAN_POINT('',(-46.875,3.,28.75));
#508=CARTESIAN_POINT('Origin',(-45.125,3.,28.75));
#509=CARTESIAN_POINT('',(-46.875,0.,28.75));
#510=CARTESIAN_POINT('',(-46.875,0.,28.75));
#511=CARTESIAN_POINT('Origin',(-45.125,0.,28.75));
#512=CARTESIAN_POINT('Origin',(45.125,0.,-28.75));
#513=CARTESIAN_POINT('',(43.375,3.,-28.75));
#514=CARTESIAN_POINT('Origin',(45.125,3.,-28.75));
#515=CARTESIAN_POINT('',(43.375,0.,-28.75));
#516=CARTESIAN_POINT('',(43.375,0.,-28.75));
#517=CARTESIAN_POINT('Origin',(45.125,0.,-28.75));
#518=CARTESIAN_POINT('Origin',(-45.125,0.,-28.75));
#519=CARTESIAN_POINT('',(-46.875,3.,-28.75));
#520=CARTESIAN_POINT('Origin',(-45.125,3.,-28.75));
#521=CARTESIAN_POINT('',(-46.875,0.,-28.75));
#522=CARTESIAN_POINT('',(-46.875,0.,-28.75));
#523=CARTESIAN_POINT('Origin',(-45.125,0.,-28.75));
#524=CARTESIAN_POINT('Origin',(45.125,0.,28.75));
#525=CARTESIAN_POINT('',(43.375,3.,28.75));
#526=CARTESIAN_POINT('Origin',(45.125,3.,28.75));
#527=CARTESIAN_POINT('',(43.375,0.,28.75));
#528=CARTESIAN_POINT('',(43.375,0.,28.75));
#529=CARTESIAN_POINT('Origin',(45.125,0.,28.75));
#530=CARTESIAN_POINT('Origin',(40.875,0.,10.));
#531=CARTESIAN_POINT('',(40.875,0.,10.));
#532=CARTESIAN_POINT('',(20.875,0.,10.));
#533=CARTESIAN_POINT('',(20.875,0.,10.));
#534=CARTESIAN_POINT('',(20.875,3.,10.));
#535=CARTESIAN_POINT('',(20.875,0.,10.));
#536=CARTESIAN_POINT('',(40.875,3.,10.));
#537=CARTESIAN_POINT('',(20.875,3.,10.));
#538=CARTESIAN_POINT('',(40.875,0.,10.));
#539=CARTESIAN_POINT('Origin',(40.875,0.,-10.));
#540=CARTESIAN_POINT('',(40.875,0.,-10.));
#541=CARTESIAN_POINT('',(40.875,0.,-10.));
#542=CARTESIAN_POINT('',(40.875,3.,-10.));
#543=CARTESIAN_POINT('',(40.875,3.,-10.));
#544=CARTESIAN_POINT('',(40.875,0.,-10.));
#545=CARTESIAN_POINT('Origin',(20.875,0.,-10.));
#546=CARTESIAN_POINT('',(20.875,0.,-10.));
#547=CARTESIAN_POINT('',(20.875,0.,-10.));
#548=CARTESIAN_POINT('',(20.875,3.,-10.));
#549=CARTESIAN_POINT('',(20.875,3.,-10.));
#550=CARTESIAN_POINT('',(20.875,0.,-10.));
#551=CARTESIAN_POINT('Origin',(20.875,0.,-30.));
#552=CARTESIAN_POINT('',(20.875,0.,-30.));
#553=CARTESIAN_POINT('',(20.875,0.,-30.));
#554=CARTESIAN_POINT('',(20.875,3.,-30.));
#555=CARTESIAN_POINT('',(20.875,3.,-30.));
#556=CARTESIAN_POINT('',(20.875,0.,-30.));
#557=CARTESIAN_POINT('Origin',(-42.125,0.,-30.));
#558=CARTESIAN_POINT('',(-42.125,0.,-30.));
#559=CARTESIAN_POINT('',(-42.125,0.,-30.));
#560=CARTESIAN_POINT('',(-42.125,3.,-30.));
#561=CARTESIAN_POINT('',(-42.125,3.,-30.));
#562=CARTESIAN_POINT('',(-42.125,0.,-30.));
#563=CARTESIAN_POINT('Origin',(-42.125,0.,30.));
#564=CARTESIAN_POINT('',(-42.125,0.,30.));
#565=CARTESIAN_POINT('',(-42.125,0.,30.));
#566=CARTESIAN_POINT('',(-42.125,3.,30.));
#567=CARTESIAN_POINT('',(-42.125,3.,30.));
#568=CARTESIAN_POINT('',(-42.125,0.,30.));
#569=CARTESIAN_POINT('Origin',(20.875,0.,30.));
#570=CARTESIAN_POINT('',(20.875,0.,30.));
#571=CARTESIAN_POINT('',(20.875,0.,30.));
#572=CARTESIAN_POINT('',(20.875,3.,30.));
#573=CARTESIAN_POINT('',(20.875,3.,30.));
#574=CARTESIAN_POINT('',(20.875,0.,30.));
#575=CARTESIAN_POINT('Origin',(20.875,0.,10.));
#576=CARTESIAN_POINT('',(20.875,0.,30.));
#577=CARTESIAN_POINT('',(20.875,3.,30.));
#578=CARTESIAN_POINT('Origin',(51.,0.,35.));
#579=CARTESIAN_POINT('',(51.,0.,-35.));
#580=CARTESIAN_POINT('',(51.,0.,35.));
#581=CARTESIAN_POINT('',(51.,0.,-35.));
#582=CARTESIAN_POINT('',(51.,3.,-35.));
#583=CARTESIAN_POINT('',(51.,0.,-35.));
#584=CARTESIAN_POINT('',(51.,3.,35.));
#585=CARTESIAN_POINT('',(51.,3.,-35.));
#586=CARTESIAN_POINT('',(51.,0.,35.));
#587=CARTESIAN_POINT('Origin',(-51.,0.,35.));
#588=CARTESIAN_POINT('',(-51.,0.,35.));
#589=CARTESIAN_POINT('',(51.,0.,35.));
#590=CARTESIAN_POINT('',(-51.,3.,35.));
#591=CARTESIAN_POINT('',(51.,3.,35.));
#592=CARTESIAN_POINT('',(-51.,0.,35.));
#593=CARTESIAN_POINT('Origin',(-51.,0.,-35.));
#594=CARTESIAN_POINT('',(-51.,0.,-35.));
#595=CARTESIAN_POINT('',(-51.,0.,35.));
#596=CARTESIAN_POINT('',(-51.,3.,-35.));
#597=CARTESIAN_POINT('',(-51.,3.,35.));
#598=CARTESIAN_POINT('',(-51.,0.,-35.));
#599=CARTESIAN_POINT('Origin',(51.,0.,-35.));
#600=CARTESIAN_POINT('',(-51.,0.,-35.));
#601=CARTESIAN_POINT('',(-51.,3.,-35.));
#602=CARTESIAN_POINT('Origin',(-8.88178419700125E-15,3.,0.));
#603=CARTESIAN_POINT('Origin',(-8.88178419700125E-15,0.,0.));
#604=UNCERTAINTY_MEASURE_WITH_UNIT(LENGTH_MEASURE(0.01),#608,
'DISTANCE_ACCURACY_VALUE',
'Maximum model space distance between geometric entities at asserted c
onnectivities');
#605=UNCERTAINTY_MEASURE_WITH_UNIT(LENGTH_MEASURE(0.01),#608,
'DISTANCE_ACCURACY_VALUE',
'Maximum model space distance between geometric entities at asserted c
onnectivities');
#606=(
GEOMETRIC_REPRESENTATION_CONTEXT(3)
GLOBAL_UNCERTAINTY_ASSIGNED_CONTEXT((#604))
GLOBAL_UNIT_ASSIGNED_CONTEXT((#608,#610,#611))
REPRESENTATION_CONTEXT('','3D')
);
#607=(
GEOMETRIC_REPRESENTATION_CONTEXT(3)
GLOBAL_UNCERTAINTY_ASSIGNED_CONTEXT((#605))
GLOBAL_UNIT_ASSIGNED_CONTEXT((#608,#610,#611))
REPRESENTATION_CONTEXT('','3D')
);
#608=(
LENGTH_UNIT()
NAMED_UNIT(*)
SI_UNIT(.MILLI.,.METRE.)
);
#609=(
LENGTH_UNIT()
NAMED_UNIT(*)
SI_UNIT($,.METRE.)
);
#610=(
NAMED_UNIT(*)
PLANE_ANGLE_UNIT()
SI_UNIT($,.RADIAN.)
);
#611=(
NAMED_UNIT(*)
SI_UNIT($,.STERADIAN.)
SOLID_ANGLE_UNIT()
);
#612=SHAPE_DEFINITION_REPRESENTATION(#613,#614);
#613=PRODUCT_DEFINITION_SHAPE('',$,#616);
#614=SHAPE_REPRESENTATION('',(#384),#606);
#615=PRODUCT_DEFINITION_CONTEXT('part definition',#620,'design');
#616=PRODUCT_DEFINITION('Top Plate','Top Plate v3',#617,#615);
#617=PRODUCT_DEFINITION_FORMATION('',$,#622);
#618=PRODUCT_RELATED_PRODUCT_CATEGORY('Top Plate v3','Top Plate v3',(#622));
#619=APPLICATION_PROTOCOL_DEFINITION('international standard',
'automotive_design',2009,#620);
#620=APPLICATION_CONTEXT(
'Core Data for Automotive Mechanical Design Process');
#621=PRODUCT_CONTEXT('part definition',#620,'mechanical');
#622=PRODUCT('Top Plate','Top Plate v3',$,(#621));
#623=PRESENTATION_STYLE_ASSIGNMENT((#624));
#624=SURFACE_STYLE_USAGE(.BOTH.,#625);
#625=SURFACE_SIDE_STYLE('',(#626));
#626=SURFACE_STYLE_FILL_AREA(#627);
#627=FILL_AREA_STYLE('Steel - Satin',(#628));
#628=FILL_AREA_STYLE_COLOUR('Steel - Satin',#629);
#629=COLOUR_RGB('Steel - Satin',0.627450980392157,0.627450980392157,0.627450980392157);
ENDSEC;
END-ISO-10303-21;
